# This file uses centimeters as units for non-parametric coordinates.

mtllib cat head.mtl
g default
v -0.104369 0.985700 1.055988
v 0.104315 0.985700 1.055988
v -0.104369 1.009951 1.071461
v 0.104315 1.009951 1.071461
v -0.301672 1.367038 0.778598
v 0.301618 1.367038 0.778598
v -0.301672 1.296932 0.733869
v 0.301618 1.296932 0.733869
v -0.301672 1.307527 0.674749
v 0.301618 1.307527 0.674749
v -0.301672 1.390848 0.698546
v 0.301618 1.390848 0.698546
v -0.301672 1.506536 0.293478
v 0.301618 1.506536 0.293478
v -0.301672 1.423215 0.269681
v 0.301618 1.423215 0.269681
v -0.159071 1.862923 0.122035
v 0.159017 1.862923 0.122035
v 0.159017 1.818992 0.109489
v -0.159071 1.818992 0.109489
v -0.159071 1.937782 -0.140076
v 0.159017 1.937782 -0.140076
v 0.159017 1.893851 -0.152623
v -0.159071 1.893851 -0.152623
v 0.432321 1.862923 0.122035
v 0.432321 1.818992 0.109489
v 0.432321 1.893851 -0.152623
v 0.432321 1.937782 -0.140076
v -0.432376 1.862923 0.122035
v -0.432376 1.818992 0.109489
v -0.432376 1.937782 -0.140076
v -0.432376 1.893851 -0.152623
v 0.768969 1.550749 0.298277
v 0.768969 1.506818 0.285730
v 0.768969 1.581677 0.023620
v 0.768969 1.625608 0.036167
v -0.769023 1.550749 0.298277
v -0.769023 1.506818 0.285730
v -0.769023 1.625608 0.036167
v -0.769023 1.581677 0.023620
v 0.364754 1.624749 0.405440
v 0.350556 1.601767 0.396536
v 0.396206 1.322269 0.495495
v 0.410403 1.345252 0.504399
v -0.341985 1.669513 0.440663
v -0.347254 1.626062 0.427578
v -0.343098 1.379919 0.515756
v -0.348366 1.336468 0.502671
v -0.159071 1.794894 -0.399830
v 0.159017 1.794894 -0.399830
v 0.159017 1.750962 -0.412377
v -0.159071 1.750962 -0.412377
v 0.432321 1.794894 -0.399830
v 0.432321 1.750962 -0.412377
v -0.432376 1.750962 -0.412377
v -0.432376 1.794894 -0.399830
v -0.777155 1.621749 -0.040883
v -0.496599 1.853399 -0.155642
v -0.800936 1.644347 -0.041924
v -0.520380 1.875998 -0.156683
v -0.942413 1.546537 -0.491316
v -0.511658 1.753815 -0.521407
v -0.924338 1.513998 -0.489306
v -0.493583 1.721275 -0.519396
v 0.756154 1.724600 0.014089
v 0.495688 1.934162 -0.136333
v 0.738016 1.697238 0.006741
v 0.477550 1.906800 -0.143680
v 0.913849 1.521076 -0.433884
v 0.641753 1.890815 -0.484869
v 0.942600 1.545009 -0.423713
v 0.670504 1.914748 -0.474698
v -0.284129 1.703450 -0.497659
v 0.284129 1.703450 -0.497659
v -0.284129 1.765221 -0.540018
v 0.284129 1.765221 -0.540018
v -0.284129 1.537138 -0.872621
v 0.284129 1.537138 -0.872621
v -0.284129 1.475367 -0.830262
v 0.284129 1.475367 -0.830262
vt 0.005117 0.363449
vt 0.117976 0.472894
vt 0.000000 0.371142
vt 0.103183 0.495135
vt 0.429017 0.324291
vt 0.540867 0.213815
vt 0.444014 0.346396
vt 0.546055 0.221461
vt 0.663693 0.791031
vt 0.704614 0.658573
vt 0.690939 0.799448
vt 0.731860 0.666990
vt 0.839478 0.597275
vt 0.853843 0.601713
vt 0.623838 0.793790
vt 0.583023 0.661299
vt 0.651090 0.785394
vt 0.610276 0.652904
vt 0.758652 0.855196
vt 0.773021 0.850769
vt 0.498099 0.701962
vt 0.485804 0.699578
vt 0.507586 0.628925
vt 0.436661 0.811716
vt 0.496098 0.623980
vt 0.620674 0.641360
vt 0.429017 0.812899
vt 0.613081 0.560008
vt 0.624001 0.566236
vt 0.601373 0.488016
vt 0.590465 0.482090
vt 0.052969 0.342127
vt 0.065085 0.339842
vt 0.062594 0.417072
vt 0.011752 0.213812
vt 0.074094 0.412249
vt 0.000000 0.217435
vt 0.186181 0.400535
vt 0.178246 0.481098
vt 0.189100 0.474989
vt 0.166229 0.552354
vt 0.155388 0.558161
vt 0.063641 0.324417
vt 0.040335 0.228168
vt 0.068380 0.310057
vt 0.045073 0.213808
vt 0.176938 0.374662
vt 0.172817 0.389213
vt 0.863545 0.612779
vt 0.858034 0.599763
vt 0.943483 0.528143
vt 0.939878 0.520116
vt 0.991026 0.448437
vt 0.987421 0.440410
vt 0.000000 0.252571
vt 0.011037 0.251927
vt 0.035237 0.361813
vt 0.044928 0.360889
vt 0.641692 0.129731
vt 0.668222 0.002055
vt 0.651673 0.131168
vt 0.659584 0.000000
vt 0.771182 0.009143
vt 0.770031 0.845512
vt 0.771849 0.646556
vt 0.908957 0.846782
vt 0.910775 0.647826
vt 0.726029 0.421773
vt 0.727847 0.222817
vt 0.864955 0.423043
vt 0.866774 0.224087
vt 0.001433 0.746174
vt 0.003101 0.643737
vt 0.089218 0.747603
vt 0.090886 0.645167
vt 0.000000 0.834188
vt 0.092319 0.557152
vt 0.184690 0.749158
vt 0.087785 0.835617
vt 0.004534 0.555723
vt 0.186358 0.646721
vt 0.183257 0.837172
vt 0.187791 0.558707
vt 0.723128 0.302776
vt 0.720565 0.400974
vt 0.638975 0.300580
vt 0.636412 0.398778
vt 0.725330 0.218404
vt 0.634210 0.483150
vt 0.547454 0.298191
vt 0.641178 0.216207
vt 0.718362 0.485347
vt 0.544891 0.396389
vt 0.549656 0.213818
vt 0.723348 0.088486
vt 0.709605 0.614984
vt 0.542688 0.480761
vt 0.807500 0.090683
vt 0.793757 0.617181
vt 0.839201 0.223806
vt 0.836153 0.481377
vt 0.179210 0.362064
vt 0.047669 0.216674
vt 0.167111 0.213818
vt 0.145109 0.836576
vt 0.155515 0.953365
vt 0.000000 0.837606
vt 0.042580 0.977954
vt 0.913998 0.853577
vt 0.852544 0.977806
vt 0.904956 0.847783
vt 0.859814 0.983637
vt 0.755364 0.948334
vt 0.777022 0.845606
vt 0.968039 0.434417
vt 0.968577 0.235453
vt 0.996616 0.434494
vt 0.997155 0.235530
vt 0.982733 0.657402
vt 0.982719 0.552497
vt 0.997801 0.657400
vt 0.997786 0.552495
vt 0.982746 0.747537
vt 0.997774 0.462360
vt 0.997814 0.747535
vt 0.982706 0.462362
vt 0.429017 0.631023
vt 0.433923 0.438472
vt 0.556401 0.588726
vt 0.558988 0.487202
vt 0.599393 0.729915
vt 0.595713 0.925232
vt 0.460292 0.773479
vt 0.458352 0.876460
vt 0.803715 0.090135
vt 0.788647 0.090182
vt 0.803433 0.000000
vt 0.788365 0.000047
vt 0.429017 0.213865
vt 0.444085 0.213818
vt 0.429299 0.304000
vt 0.444367 0.303953
vt 0.359348 0.991771
vt 0.388612 0.855265
vt 0.453730 0.986793
vt 0.991380 0.198531
vt 0.869035 0.219922
vt 0.873662 0.132308
vt 0.914558 0.320122
vt 0.953858 0.468930
vt 0.825033 0.439995
vt 0.957800 0.384174
vt 0.895199 0.560532
vt 0.311416 1.000000
vt 0.286011 0.855273
vt 0.381436 0.855639
vt 0.674694 0.126365
vt 0.754204 0.029703
vt 0.682244 0.134043
vt 0.761754 0.037380
vt 0.674752 0.633607
vt 0.605024 0.488711
vt 0.685713 0.627569
vt 0.615986 0.482673
vt 0.063232 0.237531
vt 0.136215 0.327777
vt 0.055002 0.244292
vt 0.127985 0.334538
vt 0.089966 0.517851
vt 0.000000 0.395300
vt 0.100034 0.510012
vt 0.010068 0.387460
vt 0.278900 0.856219
vt 0.300012 0.960254
vt 0.150339 0.854382
vt 0.201384 0.986440
vt 0.986180 0.100383
vt 0.975905 0.100921
vt 0.973244 0.000000
vt 0.964372 0.001000
vt 0.727897 0.909437
vt 0.731255 0.850253
vt 0.736056 0.909900
vt 0.607399 0.787088
vt 0.739414 0.850716
vt 0.597691 0.958187
vt 0.810366 0.097956
vt 0.814317 0.043110
vt 0.928006 0.158557
vt 0.939430 0.000000
vt 0.949862 0.160132
vt 0.961286 0.001575
vt 0.213818 0.000000
vt 0.427636 0.000000
vt 0.427636 0.213818
vt 0.213818 0.213818
vt 0.427636 0.427636
vt 0.213818 0.427636
vt 0.427636 0.641455
vt 0.213818 0.641455
vt 0.427636 0.855273
vt 0.213818 0.855273
vt 0.641455 0.000000
vt 0.641455 0.213818
vt 0.000000 0.000000
vt 0.000000 0.213818
vn 0.000000 -0.537879 0.843022
vn 0.000000 -0.537875 0.843025
vn 0.000000 -0.537879 0.843022
vn 0.000000 -0.537874 0.843025
vn 0.000000 0.634145 0.773214
vn 0.000000 0.634146 0.773214
vn 0.000000 0.634146 0.773214
vn 0.000000 0.634146 0.773214
vn 0.000000 0.537868 -0.843029
vn 0.000000 0.537869 -0.843028
vn 0.000000 0.537868 -0.843029
vn 0.000000 0.537869 -0.843028
vn 0.000000 -0.719156 -0.694849
vn 0.000000 -0.719156 -0.694849
vn 0.000000 -0.719156 -0.694849
vn 0.000000 -0.719156 -0.694849
vn 0.912098 -0.220513 0.345616
vn 0.912099 -0.220510 0.345616
vn 0.912099 -0.220513 0.345616
vn 0.912099 -0.220510 0.345616
vn -0.912099 -0.220510 0.345616
vn -0.912099 -0.220512 0.345615
vn -0.912099 -0.220510 0.345616
vn -0.912099 -0.220512 0.345614
vn 0.000000 -0.274620 0.961553
vn 0.000000 -0.274620 0.961553
vn 0.000000 -0.274620 0.961553
vn 0.000000 -0.274620 0.961553
vn 0.000000 0.961553 0.274621
vn 0.000000 0.961553 0.274621
vn 0.000000 0.961553 0.274621
vn 0.000000 0.961553 0.274621
vn 0.000000 0.274624 -0.961552
vn 0.000000 0.274622 -0.961552
vn 0.000000 0.274624 -0.961552
vn 0.000000 0.274622 -0.961552
vn 0.000000 -0.961553 -0.274621
vn 0.000000 -0.961553 -0.274621
vn 0.000000 -0.961553 -0.274621
vn 0.000000 -0.961553 -0.274621
vn 1.000000 0.000000 0.000000
vn 1.000000 -0.000000 0.000000
vn 1.000000 0.000000 0.000000
vn 1.000000 -0.000000 0.000000
vn -1.000000 0.000000 0.000000
vn -1.000000 0.000000 0.000000
vn -1.000000 0.000000 0.000000
vn -1.000000 0.000000 0.000000
vn 0.000000 0.433505 0.901151
vn 0.000000 0.433505 0.901151
vn 0.000000 0.433505 0.901151
vn 0.000000 0.433505 0.901151
vn 0.878880 0.131006 -0.458702
vn 0.878880 0.131005 -0.458702
vn 0.878880 0.131006 -0.458702
vn 0.878880 0.131004 -0.458702
vn 0.000000 -0.375188 -0.926949
vn 0.000000 -0.375188 -0.926949
vn 0.000000 -0.375188 -0.926949
vn 0.000000 -0.375188 -0.926949
vn -0.878880 0.131005 -0.458702
vn -0.878880 0.131005 -0.458702
vn -0.878880 0.131005 -0.458702
vn -0.878880 0.131005 -0.458702
vn 0.000000 0.961552 0.274622
vn 0.000000 0.961553 0.274621
vn 0.000000 0.961553 0.274621
vn 0.000000 0.961553 0.274621
vn 1.000000 0.000002 0.000000
vn 1.000000 0.000002 0.000000
vn 1.000000 -0.000002 0.000000
vn 1.000000 -0.000002 0.000000
vn 0.000000 -0.961553 -0.274620
vn 0.000000 -0.961553 -0.274620
vn 0.000000 -0.961553 -0.274620
vn 0.000000 -0.961553 -0.274620
vn -1.000000 0.000000 0.000000
vn -1.000000 0.000000 0.000000
vn -1.000000 0.000001 0.000000
vn -1.000000 0.000001 0.000000
vn 0.000000 -0.274618 0.961553
vn 0.000000 -0.274618 0.961553
vn 0.000000 -0.274619 0.961553
vn 0.000000 -0.274619 0.961553
vn 0.000000 -0.961553 -0.274621
vn 0.000000 -0.961553 -0.274620
vn -0.422895 -0.871338 -0.248855
vn -0.316196 -0.912219 -0.260530
vn 0.000000 0.274623 -0.961552
vn 0.000000 0.274623 -0.961552
vn 0.000000 0.274624 -0.961552
vn 0.000000 0.274624 -0.961552
vn 0.000000 0.961553 0.274621
vn 0.000000 0.961553 0.274621
vn 0.316197 0.912219 0.260531
vn 0.422896 0.871338 0.248855
vn 0.000000 -0.274620 0.961553
vn 0.000000 -0.274620 0.961553
vn 0.000000 -0.274619 0.961553
vn 0.000000 -0.274618 0.961553
vn 0.000000 0.961553 0.274621
vn 0.000000 0.961553 0.274621
vn -0.422896 0.871338 0.248855
vn -0.316197 0.912219 0.260531
vn 0.000000 0.274623 -0.961552
vn 0.000000 0.274623 -0.961552
vn 0.000000 0.274624 -0.961552
vn 0.000000 0.274624 -0.961552
vn 0.000000 -0.961553 -0.274620
vn 0.000000 -0.961553 -0.274620
vn 0.316196 -0.912219 -0.260531
vn 0.422895 -0.871338 -0.248855
vn -0.681426 0.142852 0.717811
vn -0.681426 0.142852 0.717810
vn -0.681435 0.142850 0.717802
vn -0.681435 0.142850 0.717802
vn -0.598913 -0.770025 -0.219921
vn -0.598913 -0.770025 -0.219921
vn 0.604096 0.218847 -0.766273
vn 0.604100 0.218847 -0.766270
vn 0.604096 0.218847 -0.766273
vn 0.604100 0.218847 -0.766270
vn 0.598913 0.770025 0.219920
vn 0.598913 0.770025 0.219920
vn 0.977165 -0.056844 -0.204738
vn 0.977169 -0.056837 -0.204721
vn 0.977165 -0.056844 -0.204737
vn 0.977169 -0.056836 -0.204721
vn -0.598913 0.770025 0.219920
vn -0.598913 0.770025 0.219920
vn -0.604096 0.218847 -0.766273
vn -0.604096 0.218847 -0.766273
vn -0.604100 0.218847 -0.766270
vn -0.604100 0.218847 -0.766270
vn 0.598913 -0.770025 -0.219921
vn 0.598913 -0.770025 -0.219921
vn -0.980590 0.053845 -0.188533
vn -0.981244 0.064592 -0.181629
vn -0.886447 0.452991 0.094930
vn -0.864851 0.486943 0.122143
vn -0.326588 -0.706594 -0.627747
vn -0.328973 -0.579919 -0.745299
vn -0.328594 -0.563372 -0.758049
vn -0.314540 -0.362056 -0.877485
vn 0.578995 -0.223905 0.783984
vn 0.600589 -0.558467 0.572196
vn 0.580092 -0.229717 0.781488
vn 0.598106 -0.582663 0.550248
vn 0.300535 0.693663 0.654607
vn 0.306610 0.555374 0.773014
vn 0.306419 0.572927 0.760173
vn 0.300206 0.361560 0.882695
vn 0.969813 0.066966 -0.234474
vn 0.961276 -0.026461 -0.274314
vn 0.969543 0.060438 -0.237347
vn 0.960298 -0.033033 -0.277013
vn -0.389597 0.734115 0.556138
vn -0.398157 0.569328 0.719261
vn -0.396712 0.517440 0.758205
vn -0.365631 0.234941 0.900620
vn -0.515200 -0.235367 0.824119
vn -0.514954 -0.233087 0.824920
vn -0.510175 -0.193164 0.838098
vn -0.509863 -0.190782 0.838834
vn 0.393435 -0.735606 -0.551447
vn 0.400714 -0.520000 -0.754340
vn 0.402118 -0.569187 -0.717166
vn 0.368820 -0.234636 -0.899399
vn 0.000000 0.876182 -0.481981
vn 0.000000 0.876182 -0.481981
vn 0.000000 0.876182 -0.481981
vn 0.000000 0.876182 -0.481981
vn 0.000000 -0.876182 0.481981
vn 0.000000 -0.876182 0.481981
vn 0.000000 -0.876182 0.481981
vn 0.000000 -0.876182 0.481981
vn 0.000000 0.876182 -0.481981
vn 0.000000 0.876182 -0.481981
vn 0.000000 0.876182 -0.481981
vn 0.000000 0.876182 -0.481981
vn 1.000000 0.000003 0.000000
vn 1.000000 0.000003 0.000000
vn 1.000000 -0.000002 0.000000
vn 1.000000 -0.000002 0.000000
vn 0.000000 -0.876182 0.481980
vn 0.000000 -0.876182 0.481980
vn 0.000000 -0.876182 0.481980
vn 0.000000 -0.876182 0.481981
vn 0.000000 -0.876182 0.481980
vn 0.000000 -0.876182 0.481980
vn 0.000000 -0.876182 0.481980
vn 0.000000 -0.876182 0.481981
vn -1.000000 0.000001 0.000000
vn -1.000000 -0.000001 0.000000
vn -1.000000 0.000001 0.000000
vn -1.000000 -0.000002 0.000000
vn 0.000000 0.876182 -0.481981
vn 0.000000 0.876182 -0.481981
vn 0.000000 0.876182 -0.481981
vn 0.000000 0.876182 -0.481980
vn 0.188897 0.242622 0.951553
vn 0.188898 0.242623 0.951552
vn 0.188897 0.242622 0.951553
vn 0.188898 0.242623 0.951552
vn -0.629324 0.776598 0.029096
vn -0.540501 0.830310 -0.135807
vn -0.539686 0.830621 -0.137141
vn -0.430895 0.852511 -0.295897
vn -0.031546 -0.079086 -0.996369
vn -0.031542 -0.079089 -0.996368
vn -0.031546 -0.079086 -0.996369
vn -0.031542 -0.079089 -0.996368
vn 0.429619 -0.847607 0.311432
vn 0.541777 -0.827527 0.147227
vn 0.540182 -0.828099 0.149853
vn 0.631436 -0.775144 -0.020995
vn 0.866620 0.471251 -0.163987
vn 0.860326 0.481755 -0.166587
vn 0.690254 0.690449 -0.216402
vn 0.677131 0.702477 -0.219137
vn -0.647837 -0.664589 0.372328
vn -0.658484 -0.654108 0.372211
vn -0.820766 -0.446407 0.356461
vn -0.826306 -0.437045 0.355261
vn -0.458625 0.066057 0.886171
vn -0.458627 0.066059 0.886170
vn -0.458625 0.066057 0.886171
vn -0.458628 0.066059 0.886170
vn -0.643103 -0.764217 0.048901
vn -0.701837 -0.701734 -0.122450
vn -0.705923 -0.694736 -0.137894
vn -0.738721 -0.588855 -0.327935
vn 0.278264 0.072711 -0.957749
vn 0.278280 0.072722 -0.957743
vn 0.278265 0.072711 -0.957748
vn 0.278280 0.072723 -0.957743
vn 0.732670 0.586736 0.344870
vn 0.698242 0.703309 0.133474
vn 0.702497 0.695578 0.150561
vn 0.640785 0.766594 -0.041575
vn -0.535950 0.780560 -0.321689
vn -0.545747 0.772447 -0.324786
vn -0.711205 0.596354 -0.372222
vn -0.723056 0.580040 -0.375159
vn 0.648496 -0.566434 0.508532
vn 0.640288 -0.576117 0.508056
vn 0.460783 -0.744936 0.482442
vn 0.454100 -0.749933 0.481034
vn 0.000000 0.565550 0.824714
vn 0.000000 0.565550 0.824714
vn 0.000000 0.565550 0.824714
vn 0.000000 0.565550 0.824714
vn 0.000000 0.824715 -0.565548
vn 0.000000 0.824715 -0.565548
vn 0.000000 0.824715 -0.565548
vn 0.000000 0.824715 -0.565548
vn 0.000000 -0.565549 -0.824715
vn 0.000000 -0.565549 -0.824715
vn 0.000000 -0.565549 -0.824715
vn 0.000000 -0.565549 -0.824715
vn 0.000000 -0.824715 0.565548
vn 0.000000 -0.824715 0.565548
vn 0.000000 -0.824715 0.565548
vn 0.000000 -0.824715 0.565548
vn 1.000000 -0.000000 0.000000
vn 1.000000 -0.000000 0.000000
vn 1.000000 -0.000000 0.000000
vn 1.000000 -0.000000 0.000000
vn -1.000000 -0.000000 0.000000
vn -1.000000 -0.000000 0.000000
vn -1.000000 -0.000000 0.000000
vn -1.000000 -0.000000 0.000000
s 1
g pCube7
usemtl initialShadingGroup
f 1/181/1 2/182/2 3/183/3
f 3/183/3 2/182/2 4/185/4
s 2
f 3/187/5 4/188/6 5/189/7
f 5/189/7 4/188/6 6/190/8
s 3
f 5/189/9 6/190/10 7/191/11
f 7/191/11 6/190/10 8/192/12
s 4
f 7/186/13 8/184/14 1/181/15
f 1/181/15 8/184/14 2/182/16
s 5
f 2/1/17 8/2/18 4/3/19
f 4/3/19 8/2/18 6/4/20
s 6
f 7/5/21 1/6/22 5/7/23
f 5/7/23 1/6/22 3/8/24
s 7
f 9/115/25 10/116/26 11/117/27
f 11/117/27 10/116/26 12/118/28
s 8
f 11/64/29 12/65/30 13/66/31
f 13/66/31 12/65/30 14/67/32
s 9
f 49/119/33 50/120/34 52/121/35
f 52/121/35 50/120/34 51/122/36
s 10
f 15/68/37 16/69/38 9/70/39
f 9/70/39 16/69/38 10/71/40
s 11
f 10/9/41 16/10/42 12/11/43
f 12/11/43 16/10/42 14/12/44
s 12
f 15/15/45 9/16/46 13/17/47
f 13/17/47 9/16/46 11/18/48
s 13
f 13/127/49 14/128/50 17/129/51
f 17/129/51 14/128/50 18/130/52
s 14
f 16/10/53 19/13/54 14/12/55
f 14/12/55 19/13/54 18/14/56
s 15
f 16/131/57 15/132/58 19/133/59
f 19/133/59 15/132/58 20/134/60
s 16
f 15/15/61 13/17/62 20/19/63
f 20/19/63 13/17/62 17/20/64
s 17
f 17/72/65 18/73/66 21/74/67
f 21/74/67 18/73/66 22/75/68
s 18
f 33/21/69 34/22/70 36/23/71
f 36/23/71 34/22/70 35/25/72
s 19
f 19/84/73 20/85/74 23/86/75
f 23/86/75 20/85/74 24/87/76
s 20
f 38/32/77 37/33/78 40/34/79
f 40/34/79 37/33/78 39/36/80
s 21
f 18/135/81 19/136/82 25/137/83
f 25/137/83 19/136/82 26/138/84
s 22
f 19/84/85 23/86/86 26/88/87
f 26/88/87 23/86/86 27/91/88
s 23
f 51/122/89 50/120/90 54/124/91
f 54/124/91 50/120/90 53/126/92
s 24
f 22/75/93 18/73/94 28/77/95
f 28/77/95 18/73/94 25/80/96
s 25
f 20/139/97 17/140/98 30/141/99
f 30/141/99 17/140/98 29/142/100
s 26
f 17/72/101 21/74/102 29/76/103
f 29/76/103 21/74/102 31/79/104
s 27
f 49/119/105 52/121/106 56/123/107
f 56/123/107 52/121/106 55/125/108
s 28
f 24/87/109 20/85/110 32/89/111
f 32/89/111 20/85/110 30/92/112
s 29
f 41/51/113 42/52/114 44/53/115
f 44/53/115 42/52/114 43/54/116
s 22
f 27/91/88 35/95/117 26/88/87
f 26/88/87 35/95/117 34/98/118
s 30
f 28/29/119 36/23/120 27/28/121
f 27/28/121 36/23/120 35/25/122
s 24
f 28/29/95 25/26/96 36/23/123
f 36/23/123 25/26/96 33/21/124
s 31
f 45/43/125 47/44/126 46/45/127
f 46/45/127 47/44/126 48/46/128
s 26
f 31/40/104 39/36/129 29/38/103
f 29/38/103 39/36/129 37/33/130
s 32
f 31/40/131 32/39/132 39/36/133
f 39/36/133 32/39/132 40/34/134
s 28
f 32/89/111 30/92/112 40/96/135
f 40/96/135 30/92/112 38/99/136
s 33
f 25/49/137 26/50/138 41/51/139
f 41/51/139 26/50/138 42/52/140
s 34
f 26/88/141 34/98/142 42/100/143
f 42/143/143 34/144/142 43/145/144
s 35
f 33/21/145 44/24/146 34/22/147
f 34/22/147 44/24/146 43/27/148
s 36
f 25/149/149 41/147/150 33/146/151
f 33/146/151 41/147/150 44/148/152
s 37
f 29/48/153 45/43/154 30/47/155
f 30/47/155 45/43/154 46/45/156
s 38
f 29/153/157 37/151/158 45/150/159
f 45/150/159 37/151/158 47/152/160
s 39
f 37/33/161 38/32/162 47/35/163
f 47/35/163 38/32/162 48/37/164
s 40
f 30/92/165 46/101/166 38/99/167
f 38/154/167 46/155/166 48/156/168
s 41
f 21/74/169 22/75/170 49/78/171
f 49/78/171 22/75/170 50/81/172
s 42
f 23/86/173 24/87/174 51/90/175
f 51/90/175 24/87/174 52/93/176
s 43
f 22/75/177 28/77/178 50/81/179
f 50/81/179 28/77/178 53/83/180
s 44
f 28/29/181 27/28/182 53/30/183
f 53/30/183 27/28/182 54/31/184
s 45
f 27/91/185 23/86/186 54/94/187
f 54/94/187 23/86/186 51/90/188
s 46
f 24/87/189 32/89/190 52/93/191
f 52/93/191 32/89/190 55/97/192
s 47
f 31/40/193 56/41/194 32/39/195
f 32/39/195 56/41/194 55/42/196
s 48
f 31/79/197 21/74/198 56/82/199
f 56/82/199 21/74/198 49/78/200
s 49
f 57/157/201 58/158/202 59/159/203
f 59/159/203 58/158/202 60/160/204
s 50
f 59/60/205 60/63/206 61/61/207
f 61/102/207 60/103/206 62/104/208
s 51
f 61/161/209 62/162/210 63/163/211
f 63/163/211 62/162/210 64/164/212
s 52
f 64/105/213 58/106/214 63/107/215
f 63/107/215 58/106/214 57/108/216
s 53
f 64/55/217 62/56/218 58/57/219
f 58/57/219 62/56/218 60/58/220
s 54
f 57/62/221 59/60/222 63/59/223
f 63/59/223 59/60/222 61/61/224
s 55
f 65/165/225 66/166/226 67/167/227
f 67/167/227 66/166/226 68/168/228
s 56
f 67/110/229 68/113/230 69/111/231
f 69/111/231 68/113/230 70/114/232
s 57
f 69/169/233 70/170/234 71/171/235
f 71/171/235 70/170/234 72/172/236
s 58
f 72/173/237 66/174/238 71/175/239
f 71/175/239 66/174/238 65/176/240
s 59
f 72/177/241 70/178/242 66/179/243
f 66/179/243 70/178/242 68/180/244
s 60
f 65/112/245 67/110/246 71/109/247
f 71/109/247 67/110/246 69/111/248
s off
f 73/193/249 74/194/250 76/195/251 75/196/252
f 75/196/253 76/195/254 78/197/255 77/198/256
f 77/198/257 78/197/258 80/199/259 79/200/260
f 79/200/261 80/199/262 74/201/263 73/202/264
f 74/194/265 80/203/266 78/204/267 76/195/268
f 79/205/269 73/193/270 75/196/271 77/206/272
