# This file uses centimeters as units for non-parametric coordinates.

mtllib refillPointGroundTile.mtl
g default
v -0.474516 0.006411 0.497895
v 0.525484 0.006411 0.497895
v -0.474516 1.006411 0.497895
v 0.525484 1.006411 0.497895
v -0.474516 1.006411 -0.502105
v 0.525484 1.006411 -0.502105
v -0.474516 0.006411 -0.502105
v 0.525484 0.006411 -0.502105
v -0.325907 1.006411 0.497895
v -0.325907 1.006411 -0.502105
v -0.325907 0.006411 -0.502105
v -0.325907 0.006411 0.497895
v 0.375879 1.006411 0.497895
v 0.375879 1.006411 -0.502105
v 0.375879 0.006411 -0.502105
v 0.375879 0.006411 0.497895
v -0.325907 1.006411 0.336176
v -0.474516 1.006411 0.336176
v -0.474516 0.006411 0.336176
v -0.325907 0.006411 0.336176
v 0.375879 0.006411 0.336176
v 0.525484 0.006411 0.336176
v 0.525484 1.006411 0.336176
v 0.375879 1.006411 0.336176
v -0.325907 1.006411 -0.326300
v -0.474516 1.006411 -0.326300
v -0.474516 0.006411 -0.326300
v -0.325907 0.006411 -0.326300
v 0.375879 0.006411 -0.326300
v 0.525484 0.006411 -0.326300
v 0.525484 1.006411 -0.326300
v 0.375879 1.006411 -0.326300
v 0.375879 1.006411 0.336176
v -0.325907 1.006411 0.336176
v 0.375879 1.006411 -0.326300
v -0.325907 1.006411 -0.326300
v 0.375879 0.955934 0.336176
v -0.325907 0.955934 0.336176
v 0.375879 0.955934 -0.326300
v -0.325907 0.955934 -0.326300
v -0.450527 1.006411 0.471790
v -0.349895 1.006411 0.471790
v -0.349895 1.006411 0.362281
v -0.450527 1.006411 0.362281
v 0.399513 1.006411 0.472348
v 0.501850 1.006411 0.472348
v 0.501850 1.006411 0.361723
v 0.399513 1.006411 0.361723
v -0.348890 1.006411 -0.353490
v -0.451532 1.006411 -0.353490
v -0.348890 1.006411 -0.474915
v -0.451532 1.006411 -0.474915
v 0.507307 1.006411 -0.347661
v 0.394056 1.006411 -0.347661
v 0.507307 1.006411 -0.480744
v 0.394056 1.006411 -0.480744
v -0.438440 1.019077 0.458637
v -0.361982 1.019077 0.458637
v -0.361982 1.019077 0.375434
v -0.438440 1.019077 0.375434
v 0.415144 1.019077 0.455452
v 0.486219 1.019077 0.455452
v 0.486219 1.019077 0.378620
v 0.415144 1.019077 0.378620
v -0.362612 1.019077 -0.369723
v -0.437811 1.019077 -0.369723
v -0.362612 1.019077 -0.458682
v -0.437811 1.019077 -0.458682
v 0.492434 1.019077 -0.365139
v 0.408930 1.019077 -0.365139
v 0.492434 1.019077 -0.463266
v 0.408930 1.019077 -0.463266
v -0.445831 1.033456 0.466680
v -0.354591 1.033456 0.466680
v -0.354591 1.033456 0.367391
v -0.445831 1.033456 0.367391
v 0.406425 1.033456 0.464877
v 0.494938 1.033456 0.464877
v 0.494938 1.033456 0.369195
v 0.406425 1.033456 0.369195
v -0.348996 1.033456 -0.353615
v -0.451427 1.033456 -0.353615
v -0.348996 1.033456 -0.474790
v -0.451427 1.033456 -0.474790
v 0.502849 1.033456 -0.352900
v 0.398514 1.033456 -0.352900
v 0.502849 1.033456 -0.475505
v 0.398514 1.033456 -0.475505
v -0.417996 1.115880 0.436390
v -0.382427 1.115880 0.436390
v -0.382427 1.115880 0.397682
v -0.417996 1.115880 0.397682
v 0.435549 1.115880 0.433393
v 0.465814 1.115880 0.433393
v 0.465814 1.115880 0.400678
v 0.435549 1.115880 0.400678
v -0.384677 1.115880 -0.395826
v -0.415745 1.115880 -0.395826
v -0.384677 1.115880 -0.432579
v -0.415745 1.115880 -0.432579
v 0.465006 1.115880 -0.397370
v 0.436358 1.115880 -0.397370
v 0.465006 1.115880 -0.431035
v 0.436358 1.115880 -0.431035
vt 0.644792 0.937760
vt 0.597414 0.937760
vt 0.597414 0.644791
vt 0.644792 0.644791
vt 0.403329 0.937760
vt 0.403329 0.644791
vt 0.351823 0.937760
vt 0.351824 0.644791
vt 0.597414 0.058854
vt 0.644792 0.058854
vt 0.644792 0.351823
vt 0.597414 0.351823
vt 0.738918 0.976996
vt 0.403329 0.351823
vt 0.687413 0.976996
vt 0.351824 0.351823
vt 0.029765 0.015748
vt 0.223850 0.015748
vt 0.223850 0.030536
vt 0.029765 0.030536
vt 0.223850 0.250925
vt 0.029765 0.250925
vt 0.029765 0.236137
vt 0.223850 0.236137
vt 0.822302 0.101532
vt 0.808048 0.077840
vt 0.811498 0.076780
vt 0.827337 0.101274
vt 0.821163 0.107002
vt 0.803270 0.080458
vt 0.837494 0.069650
vt 0.843758 0.080002
vt 0.808046 0.049725
vt 0.823916 0.024472
vt 0.826367 0.027120
vt 0.811496 0.050785
vt 0.803267 0.047108
vt 0.819686 0.021469
vt 0.844064 0.047454
vt 0.837493 0.057911
vt 0.891901 0.098618
vt 0.872703 0.076123
vt 0.898398 0.066987
vt 0.904962 0.074678
vt 0.886629 0.099287
vt 0.869712 0.077318
vt 0.887041 0.105801
vt 0.863524 0.079212
vt 0.872278 0.049883
vt 0.886654 0.027636
vt 0.904012 0.048369
vt 0.898312 0.057191
vt 0.868976 0.048849
vt 0.884355 0.025051
vt 0.863522 0.045978
vt 0.879497 0.021258
vt 0.688322 0.085455
vt 0.681190 0.053057
vt 0.709797 0.057926
vt 0.712240 0.069023
vt 0.686023 0.086802
vt 0.678538 0.052800
vt 0.679788 0.088549
vt 0.671607 0.053694
vt 0.695436 0.026598
vt 0.728535 0.014854
vt 0.725511 0.043003
vt 0.715249 0.047800
vt 0.693762 0.024526
vt 0.722363 0.012513
vt 0.690693 0.018247
vt 0.725610 0.007120
vt 0.758871 0.028445
vt 0.795244 0.015482
vt 0.790766 0.044637
vt 0.780778 0.048196
vt 0.757189 0.026583
vt 0.790093 0.012511
vt 0.751551 0.022243
vt 0.793939 0.006905
vt 0.764402 0.089482
vt 0.748657 0.059052
vt 0.777604 0.057429
vt 0.782448 0.066791
vt 0.762482 0.091577
vt 0.745839 0.059410
vt 0.757218 0.095683
vt 0.739446 0.061335
vt 0.853271 0.074246
vt 0.847007 0.063893
vt 0.933003 0.933459
vt 0.980382 0.933459
vt 0.738918 0.933458
vt 0.933003 0.727857
vt 0.980382 0.727857
vt 0.687413 0.933458
vt 0.738919 0.727857
vt 0.933003 0.684028
vt 0.980382 0.684028
vt 0.687413 0.727857
vt 0.738919 0.684028
vt 0.687413 0.684028
vt 0.644792 0.395361
vt 0.644792 0.600962
vt 0.597414 0.600962
vt 0.597414 0.395361
vt 0.604898 0.607886
vt 0.637144 0.388333
vt 0.637308 0.637868
vt 0.605061 0.358851
vt 0.906435 0.014262
vt 0.403329 0.600962
vt 0.403329 0.395361
vt 0.847021 0.012572
vt 0.397071 0.639466
vt 0.395363 0.388627
vt 0.707824 0.113448
vt 0.793407 0.110022
vt 0.351824 0.600962
vt 0.358082 0.606287
vt 0.351824 0.395360
vt 0.707846 0.105353
vt 0.359790 0.358556
vt 0.790625 0.102234
vt 0.912077 0.068606
vt 0.905513 0.060914
vt 0.721323 0.075125
vt 0.719459 0.058278
vt 0.728542 0.064380
vt 0.785571 0.053307
vt 0.790414 0.062669
vt 0.937761 0.351823
vt 0.937761 0.395360
vt 0.937761 0.600962
vt 0.937761 0.644791
vt 0.058854 0.395360
vt 0.058854 0.600962
vt 0.014977 0.236137
vt 0.014977 0.030536
vt 0.238638 0.030536
vt 0.238638 0.236137
vt 0.851043 0.015613
vt 0.854368 0.042539
vt 0.910752 0.017244
vt 0.912978 0.044423
vt 0.714353 0.104241
vt 0.795286 0.098826
vt 0.791818 0.069534
vt 0.358082 0.639466
vt 0.397071 0.606287
vt 0.359790 0.388627
vt 0.395363 0.358556
vt 0.605061 0.388333
vt 0.637144 0.358851
vt 0.848626 0.006716
vt 0.604898 0.637868
vt 0.637308 0.607886
vt 0.908725 0.006640
vt 0.058854 0.351822
vt 0.058854 0.644792
vt 0.403329 0.058854
vt 0.933003 0.976997
vt 0.980382 0.976997
vt 0.351824 0.058854
vn 0.000000 0.000000 1.000000
vn 0.000000 0.000000 1.000000
vn 0.000000 0.000000 1.000000
vn 0.000000 0.000000 1.000000
vn 0.000000 1.000000 0.000000
vn 0.000000 1.000000 0.000000
vn 0.000000 1.000000 0.000000
vn 0.000000 1.000000 0.000000
vn 0.000000 0.000000 -1.000000
vn 0.000000 0.000000 -1.000000
vn 0.000000 0.000000 -1.000000
vn 0.000000 0.000000 -1.000000
vn 0.000000 -1.000000 0.000000
vn 0.000000 -1.000000 0.000000
vn 0.000000 -1.000000 0.000000
vn 0.000000 -1.000000 0.000000
vn 1.000000 0.000000 0.000000
vn 1.000000 0.000000 0.000000
vn 1.000000 0.000000 0.000000
vn 1.000000 0.000000 0.000000
vn -1.000000 0.000000 0.000000
vn -1.000000 0.000000 0.000000
vn -1.000000 0.000000 0.000000
vn -1.000000 0.000000 0.000000
vn 0.000000 1.000000 0.000000
vn 0.000000 1.000000 0.000000
vn 0.000000 1.000000 0.000000
vn 0.000000 1.000000 0.000000
vn 0.000000 0.000000 -1.000000
vn 0.000000 0.000000 -1.000000
vn 0.000000 -1.000000 0.000000
vn 0.000000 -1.000000 0.000000
vn 0.000000 0.000000 1.000000
vn 0.000000 0.000000 1.000000
vn 0.000000 1.000000 0.000000
vn 0.000000 1.000000 0.000000
vn 0.000000 1.000000 0.000000
vn 0.000000 1.000000 0.000000
vn 0.000000 0.000000 -1.000000
vn 0.000000 0.000000 -1.000000
vn 0.000000 -1.000000 0.000000
vn 0.000000 -1.000000 0.000000
vn 0.000000 0.000000 1.000000
vn 0.000000 0.000000 1.000000
vn 0.000000 1.000000 0.000000
vn 0.000000 1.000000 0.000000
vn 0.000000 1.000000 0.000000
vn 0.000000 1.000000 0.000000
vn -1.000000 0.000000 0.000000
vn -1.000000 0.000000 0.000000
vn 0.000000 -1.000000 0.000000
vn 0.000000 -1.000000 0.000000
vn 0.000000 -1.000000 0.000000
vn 0.000000 -1.000000 0.000000
vn 1.000000 0.000000 0.000000
vn 1.000000 0.000000 0.000000
vn 0.000000 1.000000 0.000000
vn 0.000000 1.000000 0.000000
vn 0.000000 1.000000 0.000000
vn 0.000000 1.000000 0.000000
vn 0.000000 1.000000 0.000000
vn 0.000000 1.000000 0.000000
vn 0.000000 1.000000 0.000000
vn 0.000000 1.000000 0.000000
vn 0.000000 1.000000 0.000000
vn 0.000000 1.000000 0.000000
vn 0.000000 1.000000 0.000000
vn 0.000000 1.000000 0.000000
vn -1.000000 0.000000 0.000000
vn -1.000000 0.000000 0.000000
vn 0.000000 -1.000000 0.000000
vn 0.000000 -1.000000 0.000000
vn 0.000000 -1.000000 0.000000
vn 0.000000 -1.000000 0.000000
vn 1.000000 0.000000 0.000000
vn 1.000000 0.000000 0.000000
vn 0.000000 1.000000 0.000000
vn 0.000000 1.000000 0.000000
vn 0.000000 1.000000 0.000000
vn 0.000000 1.000000 0.000000
vn 0.000000 1.000000 0.000000
vn 0.000000 1.000000 0.000000
vn 0.000000 1.000000 0.000000
vn 0.000000 1.000000 0.000000
vn 0.000000 0.000000 0.000000
vn 0.000000 0.000000 0.000000
vn 0.000000 0.000000 0.000000
vn 0.000000 0.000000 0.000000
vn 0.000000 0.000000 0.000000
vn 0.000000 0.000000 0.000000
vn 0.000000 0.000000 0.000000
vn 0.000000 0.000000 0.000000
vn 0.000000 0.000000 0.000000
vn 0.000000 0.000000 0.000000
vn 0.000000 0.000000 0.000000
vn 0.000000 0.000000 0.000000
vn 0.000000 0.000000 0.000000
vn 0.000000 0.000000 0.000000
vn 0.000000 0.000000 0.000000
vn 0.000000 0.000000 0.000000
vn 0.000000 0.000000 -1.000000
vn 0.000000 0.000000 -1.000000
vn 0.000000 0.000000 -1.000000
vn 0.000000 0.000000 -1.000000
vn -1.000000 0.000000 0.000000
vn -1.000000 0.000000 0.000000
vn -1.000000 0.000000 0.000000
vn -1.000000 0.000000 0.000000
vn 0.000000 0.000000 1.000000
vn 0.000000 0.000000 1.000000
vn 0.000000 0.000000 1.000000
vn 0.000000 0.000000 1.000000
vn 1.000000 0.000000 0.000000
vn 1.000000 0.000000 0.000000
vn 1.000000 0.000000 0.000000
vn 1.000000 0.000000 0.000000
vn 0.000000 1.000000 0.000004
vn 0.000000 1.000000 -0.000003
vn 0.000000 1.000000 0.000003
vn 0.000000 1.000000 -0.000006
vn 0.000000 1.000000 0.000000
vn 0.000000 1.000000 0.000000
vn 0.000000 1.000000 0.000000
vn 0.000000 1.000000 0.000000
vn 0.000000 1.000000 -0.000004
vn 0.000000 1.000000 0.000003
vn 0.000000 1.000000 -0.000003
vn 0.000000 1.000000 0.000006
vn 0.000000 1.000000 0.000000
vn 0.000000 1.000000 0.000000
vn 0.000000 1.000000 0.000000
vn 0.000000 1.000000 0.000000
vn 0.000000 1.000000 -0.000001
vn 0.000000 1.000000 -0.000000
vn 0.000000 1.000000 -0.000001
vn 0.000000 1.000000 0.000000
vn 0.000000 1.000000 0.000000
vn 0.000000 1.000000 0.000000
vn 0.000000 1.000000 0.000000
vn 0.000000 1.000000 0.000000
vn 0.000000 1.000000 0.000001
vn 0.000000 1.000000 0.000000
vn 0.000000 1.000000 0.000001
vn 0.000000 1.000000 0.000000
vn 0.000000 1.000000 0.000000
vn 0.000000 1.000000 0.000000
vn 0.000000 1.000000 0.000000
vn 0.000000 1.000000 0.000000
vn 0.000000 1.000000 0.000001
vn 0.000000 1.000000 0.000000
vn 0.000000 1.000000 0.000001
vn 0.000000 1.000000 0.000000
vn 0.000000 1.000000 0.000000
vn 0.000000 1.000000 0.000000
vn 0.000000 1.000000 0.000000
vn 0.000000 1.000000 0.000000
vn 0.000000 1.000000 -0.000001
vn 0.000000 1.000000 -0.000000
vn 0.000000 1.000000 -0.000001
vn 0.000000 1.000000 0.000000
vn 0.000000 1.000000 0.000000
vn 0.000000 1.000000 0.000000
vn 0.000000 1.000000 0.000000
vn 0.000000 1.000000 0.000000
vn 0.000000 1.000000 -0.000007
vn 0.000000 1.000000 -0.000002
vn 0.000000 1.000000 -0.000007
vn 0.000000 1.000000 0.000000
vn 0.000000 1.000000 0.000000
vn 0.000000 1.000000 0.000000
vn 0.000000 1.000000 0.000000
vn 0.000000 1.000000 0.000000
vn 0.000000 1.000000 0.000007
vn 0.000000 1.000000 0.000002
vn 0.000000 1.000000 0.000007
vn 0.000000 1.000000 0.000000
vn 0.000000 1.000000 0.000000
vn 0.000000 1.000000 0.000000
vn 0.000000 1.000000 0.000000
vn 0.000000 1.000000 0.000000
vn 0.000000 0.720320 0.693642
vn 0.000000 0.720322 0.693640
vn 0.000000 0.720321 0.693641
vn 0.000000 0.720322 0.693640
vn 0.723446 0.690381 0.000000
vn 0.723446 0.690381 0.000000
vn 0.723446 0.690381 0.000000
vn 0.723446 0.690381 0.000000
vn 0.000000 0.720320 -0.693642
vn 0.000000 0.720322 -0.693640
vn 0.000000 0.720321 -0.693641
vn 0.000000 0.720322 -0.693640
vn -0.723446 0.690381 0.000000
vn -0.723446 0.690381 0.000000
vn -0.723446 0.690381 0.000000
vn -0.723446 0.690381 0.000000
vn 0.000000 0.800155 0.599794
vn 0.000000 0.800154 0.599795
vn 0.000000 0.800155 0.599794
vn 0.000000 0.800153 0.599795
vn 0.629567 0.776946 0.000000
vn 0.629568 0.776945 0.000000
vn 0.629567 0.776946 0.000000
vn 0.629569 0.776945 0.000000
vn 0.000000 0.800155 -0.599794
vn 0.000000 0.800154 -0.599795
vn 0.000000 0.800155 -0.599794
vn 0.000000 0.800153 -0.599796
vn -0.629568 0.776946 0.000000
vn -0.629567 0.776946 0.000000
vn -0.629568 0.776946 0.000000
vn -0.629566 0.776947 0.000000
vn 0.000000 0.788395 0.615170
vn 0.000000 0.788396 0.615168
vn 0.000000 0.788395 0.615170
vn 0.000000 0.788397 0.615167
vn 0.678274 0.734809 0.000000
vn 0.678273 0.734810 0.000000
vn 0.678274 0.734809 0.000000
vn 0.678273 0.734810 0.000000
vn 0.000000 0.788395 -0.615170
vn 0.000000 0.788396 -0.615168
vn 0.000000 0.788395 -0.615170
vn 0.000000 0.788397 -0.615167
vn -0.678274 0.734809 0.000000
vn -0.678273 0.734810 0.000000
vn -0.678274 0.734809 0.000000
vn -0.678273 0.734810 0.000000
vn 0.000000 0.809739 0.586790
vn 0.000000 0.809743 0.586785
vn 0.000000 0.809739 0.586790
vn 0.000000 0.809744 0.586783
vn 0.648340 0.761351 0.000000
vn 0.648340 0.761351 0.000000
vn 0.648340 0.761351 0.000000
vn 0.648340 0.761351 0.000000
vn 0.000000 0.809739 -0.586790
vn 0.000000 0.809743 -0.586785
vn 0.000000 0.809739 -0.586790
vn 0.000000 0.809744 -0.586783
vn -0.648340 0.761351 0.000000
vn -0.648338 0.761352 0.000000
vn -0.648340 0.761351 0.000000
vn -0.648338 0.761353 0.000000
vn 0.000000 -0.488170 0.872749
vn 0.000000 -0.488167 0.872751
vn 0.000000 -0.488169 0.872749
vn 0.000000 -0.488166 0.872751
vn 0.889390 -0.457149 0.000000
vn 0.889390 -0.457150 0.000000
vn 0.889390 -0.457149 0.000000
vn 0.889390 -0.457150 0.000000
vn 0.000000 -0.488170 -0.872749
vn 0.000000 -0.488167 -0.872751
vn 0.000000 -0.488169 -0.872749
vn 0.000000 -0.488166 -0.872751
vn -0.889391 -0.457148 0.000000
vn -0.889390 -0.457150 0.000000
vn -0.889391 -0.457148 0.000000
vn -0.889390 -0.457150 0.000000
vn 0.000000 -0.548201 0.836346
vn 0.000000 -0.548201 0.836346
vn 0.000000 -0.548201 0.836346
vn 0.000000 -0.548201 0.836346
vn 0.855082 -0.518493 0.000000
vn 0.855083 -0.518492 0.000000
vn 0.855082 -0.518493 0.000000
vn 0.855083 -0.518491 0.000000
vn 0.000000 -0.548201 -0.836347
vn 0.000000 -0.548202 -0.836346
vn 0.000000 -0.548201 -0.836347
vn 0.000000 -0.548202 -0.836346
vn -0.855085 -0.518488 0.000000
vn -0.855083 -0.518491 0.000000
vn -0.855085 -0.518488 0.000000
vn -0.855083 -0.518491 0.000000
vn 0.000000 -0.745992 0.665954
vn 0.000000 -0.745994 0.665952
vn 0.000000 -0.745993 0.665954
vn 0.000000 -0.745994 0.665952
vn 0.726118 -0.687570 0.000000
vn 0.726117 -0.687572 0.000000
vn 0.726118 -0.687570 0.000000
vn 0.726116 -0.687572 0.000000
vn 0.000000 -0.745992 -0.665954
vn 0.000000 -0.745994 -0.665952
vn 0.000000 -0.745993 -0.665954
vn 0.000000 -0.745994 -0.665952
vn -0.726119 -0.687569 0.000000
vn -0.726116 -0.687572 0.000000
vn -0.726118 -0.687570 0.000000
vn -0.726116 -0.687572 0.000000
vn 0.000000 -0.648174 0.761492
vn 0.000000 -0.648176 0.761491
vn 0.000000 -0.648174 0.761492
vn 0.000000 -0.648176 0.761491
vn 0.809860 -0.586623 0.000000
vn 0.809859 -0.586624 0.000000
vn 0.809860 -0.586623 0.000000
vn 0.809859 -0.586624 0.000000
vn 0.000000 -0.648174 -0.761493
vn 0.000000 -0.648176 -0.761491
vn 0.000000 -0.648174 -0.761492
vn 0.000000 -0.648176 -0.761490
vn -0.809860 -0.586623 0.000000
vn -0.809861 -0.586622 0.000000
vn -0.809860 -0.586623 0.000000
vn -0.809861 -0.586622 0.000000
vn 0.000000 0.344942 0.938624
vn 0.000000 0.344942 0.938624
vn 0.000000 0.344942 0.938624
vn 0.000000 0.344941 0.938625
vn 0.947433 0.319953 0.000000
vn 0.947433 0.319953 0.000000
vn 0.947433 0.319953 0.000000
vn 0.947433 0.319953 0.000000
vn 0.000000 0.344942 -0.938624
vn 0.000000 0.344942 -0.938624
vn 0.000000 0.344942 -0.938624
vn 0.000000 0.344941 -0.938625
vn -0.947433 0.319954 0.000000
vn -0.947433 0.319954 0.000000
vn -0.947433 0.319953 0.000000
vn -0.947434 0.319953 0.000000
vn 0.000000 0.356821 0.934173
vn 0.000000 0.356821 0.934173
vn 0.000000 0.356821 0.934173
vn 0.000000 0.356821 0.934173
vn 0.942870 0.333162 0.000000
vn 0.942870 0.333162 0.000000
vn 0.942870 0.333162 0.000000
vn 0.942870 0.333161 0.000000
vn 0.000000 0.356821 -0.934173
vn 0.000000 0.356821 -0.934173
vn 0.000000 0.356821 -0.934173
vn 0.000000 0.356820 -0.934173
vn -0.942870 0.333161 0.000000
vn -0.942870 0.333161 0.000000
vn -0.942870 0.333161 0.000000
vn -0.942870 0.333162 0.000000
vn 0.000000 0.455819 0.890073
vn 0.000000 0.455819 0.890073
vn 0.000000 0.455819 0.890073
vn 0.000000 0.455819 0.890072
vn 0.917701 0.397273 0.000000
vn 0.917701 0.397273 0.000000
vn 0.917701 0.397272 0.000000
vn 0.917701 0.397271 0.000000
vn 0.000000 0.455819 -0.890073
vn 0.000000 0.455819 -0.890073
vn 0.000000 0.455819 -0.890073
vn 0.000000 0.455820 -0.890072
vn -0.917701 0.397272 0.000000
vn -0.917701 0.397272 0.000000
vn -0.917701 0.397272 0.000000
vn -0.917702 0.397271 0.000000
vn 0.000000 0.474831 0.880077
vn 0.000000 0.474831 0.880077
vn 0.000000 0.474831 0.880077
vn 0.000000 0.474831 0.880077
vn 0.908790 0.417255 0.000000
vn 0.908790 0.417255 0.000000
vn 0.908790 0.417254 0.000000
vn 0.908790 0.417253 0.000000
vn 0.000000 0.474831 -0.880077
vn 0.000000 0.474831 -0.880077
vn 0.000000 0.474831 -0.880077
vn 0.000000 0.474831 -0.880077
vn -0.908790 0.417254 0.000000
vn -0.908790 0.417254 0.000000
vn -0.908790 0.417254 0.000000
vn -0.908790 0.417254 0.000000
s 1
g refillPointGroundTile
usemtl initialShadingGroup
f 1/132/1 12/133/2 3/11/3
f 3/11/3 12/133/2 9/103/4
s 2
f 89/89/5 90/32/6 92/90/7
f 92/90/7 90/32/6 91/31/8
s 3
f 5/16/9 10/121/10 7/159/11
f 7/159/11 10/121/10 11/136/12
s 4
f 19/162/13 20/91/14 1/163/15
f 1/163/15 20/91/14 12/92/16
s 5
f 2/1/17 22/2/18 4/4/19
f 4/4/19 22/2/18 23/3/20
s 6
f 19/9/21 1/10/22 18/12/23
f 18/12/23 1/10/22 3/11/24
s 7
f 9/103/25 13/104/26 17/106/27
f 17/106/27 13/104/26 24/105/28
s 3
f 11/136/12 10/121/10 15/137/29
f 15/137/29 10/121/10 14/119/30
s 4
f 12/92/16 20/91/14 16/95/31
f 16/95/31 20/91/14 21/94/32
s 1
f 9/103/4 12/133/2 13/104/33
f 13/104/33 12/133/2 16/134/34
s 8
f 93/125/35 94/44/36 96/126/37
f 96/126/37 94/44/36 95/43/38
s 3
f 15/137/29 14/119/30 8/160/39
f 8/160/39 14/119/30 6/8/40
s 4
f 16/95/31 21/94/32 2/99/41
f 2/99/41 21/94/32 22/98/42
s 1
f 13/104/33 16/134/34 4/4/43
f 4/4/43 16/134/34 2/135/44
s 9
f 18/12/45 17/106/46 26/14/47
f 26/14/47 17/106/46 25/113/48
s 6
f 27/161/49 19/9/21 26/14/50
f 26/14/50 19/9/21 18/12/23
s 4
f 27/13/51 28/93/52 19/162/13
f 19/162/13 28/93/52 20/91/14
f 21/94/32 20/91/14 29/97/53
f 29/97/53 20/91/14 28/93/52
f 22/98/42 21/94/32 30/101/54
f 30/101/54 21/94/32 29/97/53
s 5
f 23/3/20 22/2/18 31/6/55
f 31/6/55 22/2/18 30/5/56
s 11
f 24/105/57 23/3/58 32/112/59
f 32/112/59 23/3/58 31/6/60
s 12
f 38/23/61 37/20/62 40/24/63
f 40/24/63 37/20/62 39/19/64
s 13
f 98/127/65 97/60/66 100/129/67
f 100/129/67 97/60/66 99/128/68
s 6
f 7/164/69 27/161/49 5/16/70
f 5/16/70 27/161/49 26/14/50
s 4
f 7/15/71 11/96/72 27/13/51
f 27/13/51 11/96/72 28/93/52
f 29/97/53 28/93/52 15/100/73
f 15/100/73 28/93/52 11/96/72
f 30/101/54 29/97/53 8/102/74
f 8/102/74 29/97/53 15/100/73
s 5
f 31/6/55 30/5/56 6/8/75
f 6/8/75 30/5/56 8/7/76
s 14
f 102/83/77 101/130/78 104/84/79
f 104/84/79 101/130/78 103/131/80
s 15
f 25/113/81 32/112/82 10/121/83
f 10/121/83 32/112/82 14/119/84
s off
f 17//85 24//86 33//87 34//88
f 24//89 32//90 35//91 33//92
f 32//93 25//94 36//95 35//96
f 25//97 17//98 34//99 36//100
s 16
f 34/138/101 33/139/102 38/23/103
f 38/23/103 33/139/102 37/20/104
s 17
f 33/17/105 35/18/106 37/20/107
f 37/20/107 35/18/106 39/19/108
s 18
f 35/140/109 36/141/110 39/19/111
f 39/19/111 36/141/110 40/24/112
s 19
f 36/21/113 34/22/114 40/24/115
f 40/24/115 34/22/114 38/23/116
s 20
f 3/11/117 9/103/118 41/154/119
f 41/154/119 9/103/118 42/108/120
s 21
f 9/103/121 17/106/122 42/108/123
f 42/108/123 17/106/122 43/153/124
s 22
f 17/106/125 18/12/126 43/153/127
f 43/153/127 18/12/126 44/110/128
s 23
f 18/12/129 3/11/130 44/110/131
f 44/110/131 3/11/130 41/154/132
s 24
f 13/104/133 4/4/134 45/157/135
f 45/157/135 4/4/134 46/109/136
s 25
f 4/4/137 23/3/138 46/109/139
f 46/109/139 23/3/138 47/156/140
s 26
f 23/3/141 24/105/142 47/156/143
f 47/156/143 24/105/142 48/107/144
s 27
f 24/105/145 13/104/146 48/107/147
f 48/107/147 13/104/146 45/157/148
s 28
f 26/14/149 25/113/150 50/152/151
f 50/152/151 25/113/150 49/116/152
s 29
f 25/113/153 10/121/154 49/116/155
f 49/116/155 10/121/154 51/151/156
s 30
f 10/121/157 5/16/158 51/151/159
f 51/151/159 5/16/158 52/123/160
s 31
f 5/16/161 26/14/162 52/123/163
f 52/123/163 26/14/162 50/152/164
s 32
f 32/112/165 31/6/166 54/150/167
f 54/150/167 31/6/166 53/115/168
s 33
f 31/6/169 6/8/170 53/115/171
f 53/115/171 6/8/170 55/149/172
s 34
f 6/8/173 14/119/174 55/149/175
f 55/149/175 14/119/174 56/120/176
s 35
f 14/119/177 32/112/178 56/120/179
f 56/120/179 32/112/178 54/150/180
s 36
f 41/38/181 42/155/182 57/34/183
f 57/34/183 42/155/182 58/114/184
s 37
f 42/29/185 43/30/186 58/25/187
f 58/25/187 43/30/186 59/26/188
s 38
f 43/30/189 44/37/190 59/26/191
f 59/26/191 44/37/190 60/33/192
s 39
f 44/37/193 41/38/194 60/33/195
f 60/33/195 41/38/194 57/34/196
s 40
f 45/56/197 46/158/198 61/54/199
f 61/54/199 46/158/198 62/111/200
s 41
f 46/47/201 47/48/202 62/45/203
f 62/45/203 47/48/202 63/46/204
s 42
f 47/48/205 48/55/206 63/46/207
f 63/46/207 48/55/206 64/53/208
s 43
f 48/55/209 45/56/210 64/53/211
f 64/53/211 45/56/210 61/54/212
s 44
f 50/117/213 49/63/214 66/122/215
f 66/122/215 49/63/214 65/61/216
s 45
f 49/63/217 51/64/218 65/61/219
f 65/61/219 51/64/218 67/62/220
s 46
f 51/64/221 52/71/222 67/62/223
f 67/62/223 52/71/222 68/69/224
s 47
f 52/71/225 50/72/226 68/69/227
f 68/69/227 50/72/226 66/70/228
s 48
f 54/88/229 53/79/230 70/86/231
f 70/86/231 53/79/230 69/77/232
s 49
f 53/79/233 55/80/234 69/77/235
f 69/77/235 55/80/234 71/78/236
s 50
f 55/118/237 56/87/238 71/124/239
f 71/124/239 56/87/238 72/85/240
s 51
f 56/87/241 54/88/242 72/85/243
f 72/85/243 54/88/242 70/86/244
s 52
f 57/34/245 58/114/246 73/35/247
f 73/35/247 58/114/246 74/142/248
s 53
f 58/25/249 59/26/250 74/28/251
f 74/28/251 59/26/250 75/27/252
s 54
f 59/26/253 60/33/254 75/27/255
f 75/27/255 60/33/254 76/36/256
s 55
f 60/33/257 57/34/258 76/36/259
f 76/36/259 57/34/258 73/35/260
s 56
f 61/54/261 62/111/262 77/50/263
f 77/50/263 62/111/262 78/144/264
s 57
f 62/45/265 63/46/266 78/41/267
f 78/41/267 63/46/266 79/42/268
s 58
f 63/46/269 64/53/270 79/42/271
f 79/42/271 64/53/270 80/49/272
s 59
f 64/53/273 61/54/274 80/49/275
f 80/49/275 61/54/274 77/50/276
s 60
f 66/122/277 65/61/278 82/146/279
f 82/146/279 65/61/278 81/57/280
s 61
f 65/61/281 67/62/282 81/57/283
f 81/57/283 67/62/282 83/58/284
s 62
f 67/62/285 68/69/286 83/58/287
f 83/58/287 68/69/286 84/65/288
s 63
f 68/69/289 66/70/290 84/65/291
f 84/65/291 66/70/290 82/66/292
s 64
f 70/86/293 69/77/294 86/82/295
f 86/82/295 69/77/294 85/73/296
s 65
f 69/77/297 71/78/298 85/73/299
f 85/73/299 71/78/298 87/74/300
s 66
f 71/124/301 72/85/302 87/147/303
f 87/147/303 72/85/302 88/81/304
s 67
f 72/85/305 70/86/306 88/81/307
f 88/81/307 70/86/306 86/82/308
s 68
f 73/35/309 74/142/310 89/39/311
f 89/39/311 74/142/310 90/143/312
s 69
f 74/28/313 75/27/314 90/32/315
f 90/32/315 75/27/314 91/31/316
s 70
f 75/27/317 76/36/318 91/31/319
f 91/31/319 76/36/318 92/40/320
s 71
f 76/36/321 73/35/322 92/40/323
f 92/40/323 73/35/322 89/39/324
s 72
f 77/50/325 78/144/326 93/51/327
f 93/51/327 78/144/326 94/145/328
s 73
f 78/41/329 79/42/330 94/44/331
f 94/44/331 79/42/330 95/43/332
s 74
f 79/42/333 80/49/334 95/43/335
f 95/43/335 80/49/334 96/52/336
s 75
f 80/49/337 77/50/338 96/52/339
f 96/52/339 77/50/338 93/51/340
s 76
f 82/146/341 81/57/342 98/127/343
f 98/127/343 81/57/342 97/60/344
s 77
f 81/57/345 83/58/346 97/60/347
f 97/60/347 83/58/346 99/59/348
s 78
f 83/58/349 84/65/350 99/59/351
f 99/59/351 84/65/350 100/68/352
s 79
f 84/65/353 82/66/354 100/68/355
f 100/68/355 82/66/354 98/67/356
s 80
f 86/82/357 85/73/358 102/83/359
f 102/83/359 85/73/358 101/76/360
s 81
f 85/73/361 87/74/362 101/76/363
f 101/76/363 87/74/362 103/75/364
s 82
f 87/147/365 88/81/366 103/148/367
f 103/148/367 88/81/366 104/84/368
s 83
f 88/81/369 86/82/370 104/84/371
f 104/84/371 86/82/370 102/83/372
