# This file uses centimeters as units for non-parametric coordinates.

mtllib wall_flat.mtl
g default
v 0.500000 0.000000 0.555631
v -0.500000 0.000000 0.555631
v 0.500000 0.271754 -0.444369
v -0.500000 0.271754 -0.444369
v 0.500000 0.000000 -0.444369
v -0.500000 0.000000 -0.444369
v 0.500000 0.271754 0.387831
v 0.500000 0.000000 0.387831
v -0.500000 0.000000 0.387831
v -0.500000 0.271754 0.387831
v 0.500000 0.271754 0.521106
v 0.500000 0.237228 0.555631
v -0.500000 0.271754 0.521106
v -0.500000 0.237228 0.555631
v -0.417272 1.000607 0.313477
v -0.500000 0.926257 0.387827
v 0.500000 0.917879 0.387827
v 0.417273 1.000607 0.313477
v -0.417272 1.000607 -0.361641
v -0.500000 0.917879 -0.444369
v 0.417273 1.000607 -0.361641
v 0.500000 0.917879 -0.444369
vt 0.873897 0.177789
vt 0.873897 0.242527
vt 0.601004 0.177789
vt 0.601004 0.242527
vt 0.873897 0.255851
vt 0.873897 0.292221
vt 0.601004 0.255851
vt 0.601004 0.292221
vt 0.545785 0.473915
vt 0.545793 0.548074
vt 0.272892 0.473945
vt 0.272900 0.548105
vt 0.272893 0.403498
vt 0.272893 0.449289
vt -0.000000 0.403498
vt 0.000000 0.449289
vt 0.000007 0.548135
vt 0.000000 0.483397
vt 0.045799 0.548130
vt 0.045791 0.473970
vt 0.009421 0.473974
vt 0.599337 0.224148
vt 0.525177 0.224150
vt 0.599336 0.178357
vt 0.534598 0.178359
vt 0.525176 0.187781
vt 0.599344 0.451250
vt 0.525184 0.451252
vt 0.272893 0.176396
vt -0.000000 0.176396
vt 0.873897 0.242527
vt 0.601004 0.242527
vt 0.303156 0.433530
vt 0.489541 0.440572
vt 0.275256 0.460706
vt 0.509346 0.473919
vt 0.275226 0.177483
vt 0.302928 0.207390
vt 0.516234 0.178741
vt 0.487275 0.208321
vt 0.522644 0.461960
vt 0.772887 0.000014
vt 0.772900 0.176337
vt 0.499995 0.000033
vt 0.500007 0.178642
vt 0.272906 0.176373
vt 0.272893 0.000050
vt 0.000000 0.000070
vt 0.000013 0.176393
vt 0.999989 0.000000
vt 1.000000 0.176323
vn 0.000000 0.000000 1.000000
vn 0.000000 0.000000 1.000000
vn 0.000000 0.000000 1.000000
vn 0.000000 0.000000 1.000000
vn 0.000000 0.000000 1.000000
vn 0.000000 0.000000 1.000000
vn 0.000000 1.000000 0.000000
vn 0.000000 1.000000 0.000000
vn 0.000000 1.000000 0.000000
vn 0.000000 1.000000 0.000000
vn 0.000000 1.000000 0.000000
vn 0.000000 1.000000 0.000000
vn 0.000000 0.000000 -1.000000
vn 0.000000 0.000000 -1.000000
vn 0.000000 0.000000 -1.000000
vn 0.000000 0.000000 -1.000000
vn 0.000000 0.000000 -1.000000
vn 0.000000 0.000000 -1.000000
vn 0.000000 -1.000000 0.000000
vn 0.000000 -1.000000 0.000000
vn 0.000000 -1.000000 0.000000
vn 0.000000 -1.000000 0.000000
vn 0.000000 -1.000000 0.000000
vn 0.000000 -1.000000 0.000000
vn -1.000000 0.000000 0.000000
vn -1.000000 -0.000001 0.000000
vn -1.000000 0.000000 0.000000
vn -1.000000 0.000000 0.000000
vn -1.000000 0.000000 0.000000
vn -1.000000 0.000000 0.000000
vn -1.000000 -0.000001 0.000000
vn -1.000000 0.000000 0.000000
vn -1.000000 0.000000 0.000000
vn 1.000000 0.000000 0.000000
vn 1.000000 0.000000 0.000000
vn 1.000000 0.000000 0.000000
vn 1.000000 0.000000 0.000000
vn 1.000000 0.000000 0.000000
vn 1.000000 0.000000 0.000000
vn 1.000000 0.000000 0.000000
vn 1.000000 0.000003 0.000000
vn 1.000000 0.000000 0.000000
vn 1.000000 0.000000 0.000000
vn 1.000000 0.000000 0.000000
vn 1.000000 0.000000 0.000000
vn 1.000000 0.000000 0.000000
vn 1.000000 0.000000 0.000000
vn 1.000000 0.000000 0.000000
vn 0.000000 -1.000000 0.000000
vn 0.000000 -1.000000 0.000000
vn 0.000000 -1.000000 0.000000
vn 0.000000 -1.000000 0.000000
vn 0.000000 -1.000000 0.000000
vn 0.000000 -1.000000 0.000000
vn -1.000000 0.000000 0.000000
vn -1.000000 0.000000 0.000000
vn -1.000000 0.000000 0.000000
vn -1.000000 0.000000 0.000000
vn -1.000000 0.000000 0.000000
vn -1.000000 0.000000 0.000000
vn 0.000000 0.707106 0.707107
vn 0.000000 0.707107 0.707107
vn 0.000000 0.707106 0.707107
vn 0.000000 0.707106 0.707107
vn 0.000000 0.707107 0.707107
vn 0.000000 0.707107 0.707107
vn -0.668444 0.743763 0.000000
vn -0.701685 0.712455 -0.006775
vn -0.675321 0.737523 -0.001378
vn -0.675321 0.737523 -0.001378
vn -0.701685 0.712455 -0.006775
vn -0.703502 0.710657 -0.007154
vn 0.005626 0.671540 0.740947
vn 0.005393 0.673043 0.739583
vn 0.000906 0.701495 0.712674
vn 0.000906 0.701495 0.712674
vn 0.005393 0.673043 0.739583
vn 0.000000 0.707107 0.707107
vn 0.707106 0.707107 0.000000
vn 0.707106 0.707107 0.000000
vn 0.707106 0.707107 0.000000
vn 0.707106 0.707107 0.000000
vn 0.707106 0.707107 0.000000
vn 0.707106 0.707107 0.000000
vn 0.000000 0.707107 -0.707107
vn 0.000000 0.707107 -0.707107
vn 0.000000 0.707107 -0.707107
vn 0.000000 0.707107 -0.707107
vn 0.000000 0.707107 -0.707107
vn 0.000000 0.707107 -0.707107
vn 0.000000 1.000000 0.000000
vn 0.000000 1.000000 0.000000
vn 0.000000 1.000000 0.000000
vn 0.000000 1.000000 0.000000
vn 0.000000 1.000000 0.000000
vn 0.000000 1.000000 0.000000
vn 0.000000 0.000006 1.000000
vn 0.000000 0.000006 1.000000
vn 0.000000 0.000006 1.000000
vn 0.000000 0.000006 1.000000
vn 0.000000 0.000006 1.000000
vn 0.000000 0.000006 1.000000
vn -1.000000 0.000000 0.000000
vn -1.000000 0.000000 0.000000
vn -1.000000 0.000000 0.000000
vn -1.000000 0.000000 0.000000
vn -1.000000 0.000000 0.000000
vn -1.000000 0.000000 0.000000
vn 0.000000 0.000000 -1.000000
vn 0.000000 0.000000 -1.000000
vn 0.000000 0.000000 -1.000000
vn 0.000000 0.000000 -1.000000
vn 0.000000 0.000000 -1.000000
vn 0.000000 0.000000 -1.000000
vn 1.000000 0.000000 0.000000
vn 1.000000 0.000000 0.000000
vn 1.000000 0.000000 0.000000
vn 1.000000 0.000000 0.000000
vn 1.000000 0.000000 0.000000
vn 1.000000 0.000000 0.000000
s off
g wall_flat:flatBlockMiddleEdge
usemtl wall_flat:flatBlockMiddleEdgeSG
f 1/1/1 12/2/2 2/3/3
f 2/3/4 12/2/5 14/4/6
f 11/5/7 7/6/8 13/7/9
f 13/7/10 7/6/11 10/8/12
f 3/9/13 5/10/14 4/11/15
f 4/11/16 5/10/17 6/12/18
f 8/13/19 1/14/20 9/15/21
f 9/15/22 1/14/23 2/16/24
f 2/17/25 14/18/26 9/19/27
f 10/20/28 9/19/29 13/21/30
f 14/18/31 13/21/32 9/19/33
f 8/22/34 7/23/35 1/24/36
f 1/24/37 7/23/38 12/25/39
f 7/23/40 11/26/41 12/25/42
f 5/27/43 3/28/44 8/22/45
f 8/22/46 3/28/47 7/23/48
f 5/29/49 8/13/50 6/30/51
f 6/30/52 8/13/53 9/15/54
f 10/20/55 4/11/56 9/19/57
f 9/19/58 4/11/59 6/12/60
f 11/5/61 13/7/62 12/31/63
f 12/31/64 13/7/65 14/32/66
f 15/33/67 19/34/68 16/35/69
f 16/35/70 19/34/71 20/36/72
f 17/37/73 18/38/74 16/35/75
f 16/35/76 18/38/77 15/33/78
f 22/39/79 21/40/80 17/37/81
f 17/37/82 21/40/83 18/38/84
f 19/34/85 21/40/86 20/41/87
f 20/41/88 21/40/89 22/39/90
f 18/38/91 21/40/92 15/33/93
f 15/33/94 21/40/95 19/34/96
f 7/42/97 17/43/98 10/44/99
f 10/44/100 17/43/101 16/45/102
f 16/45/103 20/46/104 10/44/105
f 10/44/106 20/46/107 4/47/108
f 4/47/109 20/46/110 3/48/111
f 3/48/112 20/46/113 22/49/114
f 3/50/115 22/51/116 7/42/117
f 7/42/118 22/51/119 17/43/120
